<svg id="Layer_1" data-name="Layer 1" xmlns="http://www.w3.org/2000/svg" xmlns:xlink="http://www.w3.org/1999/xlink" viewBox="0 0 48.22 47.12"><defs><linearGradient id="linear-gradient" x1="24.17" y1="26.72" x2="24.17" y2="18.47" gradientUnits="userSpaceOnUse"><stop offset="0.1" stop-color="#88c4df"/><stop offset="0.64" stop-color="#8780dc"/><stop offset="1" stop-color="#8465d9"/></linearGradient><linearGradient id="linear-gradient-2" x1="24.16" y1="24.42" x2="24.16" y2="20.88" gradientUnits="userSpaceOnUse"><stop offset="0.1" stop-color="#8267fc"/><stop offset="1" stop-color="#a33bf4"/><stop offset="1" stop-color="#7a2bd5"/></linearGradient><linearGradient id="linear-gradient-3" x1="595.76" y1="187.24" x2="595.76" y2="163.23" gradientUnits="userSpaceOnUse"><stop offset="0.1" stop-color="#4ebceb"/><stop offset="0.64" stop-color="#5ea2e1"/><stop offset="1" stop-color="#6a8fd9"/></linearGradient><linearGradient id="linear-gradient-4" x1="602.09" y1="199.55" x2="602.09" y2="152.43" gradientUnits="userSpaceOnUse"><stop offset="0.1" stop-color="#e3c4f1"/><stop offset="0.64" stop-color="#a56ae1"/><stop offset="1" stop-color="#7a2bd5"/></linearGradient><linearGradient id="linear-gradient-5" x1="36.47" y1="36.37" x2="36.47" y2="31.82" gradientUnits="userSpaceOnUse"><stop offset="0.1" stop-color="#e3c4f1"/><stop offset="1" stop-color="#a56ae1"/><stop offset="1" stop-color="#7a2bd5"/></linearGradient></defs><title>48x48</title><polygon points="22.2 20.53 22.2 24.66 24.17 26.72 26.14 24.66 26.14 20.53 24.17 18.47 22.2 20.53" style="fill:url(#linear-gradient)"/><polygon points="23.24 21.77 23.24 23.54 24.16 24.42 25.08 23.54 25.08 21.77 24.16 20.89 23.24 21.77" style="fill:url(#linear-gradient-2)"/><polygon points="24.7 26.68 26.59 24.88 27.19 27.44 24.7 26.68" style="fill:#8aace2"/><polygon points="21.22 27.43 21.82 24.88 23.72 26.7 21.22 27.43" style="fill:#8aabe1"/><polygon points="24.17 26.78 23.28 27.37 24.19 30.07 25.07 27.37 24.17 26.78" style="fill:#8cb9e3"/><path d="M601.77,163.23l-.93,4.16-8,5.37a15.23,15.23,0,0,0,6.91,13.15l-3,1.33s-6.86-3.7-7-15.87Z" transform="translate(-577.98 -152.43)" style="fill:url(#linear-gradient-3)"/><path d="M602.61,163.23l.92,4.16,8.23,5.37s.51,3.32-1.91,7.7c0,0-2.4,5.18-10.35,8,0,0-8.74,3.3-13.29-.6,0,0-2.72-1.62-4.57-7l1-1.09-.11-2.21-1.5-1.07s-.43-8.9,5.69-14.7l2.67.14,1.15,2.23-1.47,2.18-2.59-.11-.63-.84-1,1.25.54,1,4.06.44,3-3.46-1.88-4.3-2.18-.25a21.75,21.75,0,0,1,16.34-4.79,21.28,21.28,0,0,1,17,12.17l.68,1.67v.24l-.63,1.69-2.5.43-1.91-2.09,1.12-2.51,1.63-.27-1-1.42-1.66.19-1.83,4.09,2.75,3.62,4.06-.41.73-.65a19.39,19.39,0,0,1-4.38,16.56s-10.1,12.55-30.23,6.5a11.19,11.19,0,0,1-2.34-1.12A11.86,11.86,0,0,0,588,195.6s7,5.58,18.38,3.47a24.44,24.44,0,0,0,14.09-7.77,25.26,25.26,0,0,0,5.65-18s0-13.49-16.13-19.66c0,0-11.87-4.36-22.47,3.38,0,0-9.51,6.32-9.55,18.26,0,0,.55,8.42,3.2,11.58,0,0,4.75,6.28,11.14,5.92,0,0,3.52.47,9.15-1.89a23.09,23.09,0,0,0,10.35-8.06,17.48,17.48,0,0,0,3-10.13V171.4Z" transform="translate(-577.98 -152.43)" style="fill:url(#linear-gradient-4)"/><polygon points="35.08 31.98 37.64 31.82 39 33.73 38.13 36.1 35.38 36.37 33.94 34.38 35.08 31.98" style="fill:url(#linear-gradient-5)"/><polygon points="35.66 32.87 37.15 32.77 37.94 33.88 37.44 35.26 35.84 35.42 35 34.26 35.66 32.87" style="fill:#fff"/></svg>