<svg id="Layer_1" data-name="Layer 1" xmlns="http://www.w3.org/2000/svg" xmlns:xlink="http://www.w3.org/1999/xlink" viewBox="0 0 1787.5 1746.52"><defs><linearGradient id="linear-gradient" x1="895.85" y1="990.53" x2="895.85" y2="684.58" gradientUnits="userSpaceOnUse"><stop offset="0.1" stop-color="#88c4df"/><stop offset="0.64" stop-color="#8780dc"/><stop offset="1" stop-color="#8465d9"/></linearGradient><linearGradient id="linear-gradient-2" x1="895.42" y1="905.29" x2="895.42" y2="774.12" gradientUnits="userSpaceOnUse"><stop offset="0.1" stop-color="#8267fc"/><stop offset="1" stop-color="#a33bf4"/><stop offset="1" stop-color="#7a2bd5"/></linearGradient><linearGradient id="linear-gradient-3" x1="1237.14" y1="1442.95" x2="1237.14" y2="552.71" gradientUnits="userSpaceOnUse"><stop offset="0.1" stop-color="#4ebceb"/><stop offset="0.64" stop-color="#5ea2e1"/><stop offset="1" stop-color="#6a8fd9"/></linearGradient><linearGradient id="linear-gradient-4" x1="1471.73" y1="1898.95" x2="1471.73" y2="152.43" gradientUnits="userSpaceOnUse"><stop offset="0.1" stop-color="#e3c4f1"/><stop offset="0.64" stop-color="#a56ae1"/><stop offset="1" stop-color="#7a2bd5"/></linearGradient><linearGradient id="linear-gradient-5" x1="1351.85" y1="1348.06" x2="1351.85" y2="1179.5" gradientUnits="userSpaceOnUse"><stop offset="0.1" stop-color="#e3c4f1"/><stop offset="1" stop-color="#a56ae1"/><stop offset="1" stop-color="#7a2bd5"/></linearGradient></defs><title>logo_polysafemoon</title><polygon points="822.73 761.07 822.73 914.04 895.85 990.53 968.97 914.04 968.97 761.07 895.85 684.58 822.73 761.07" style="fill:url(#linear-gradient)"/><polygon points="861.34 806.91 861.34 872.5 895.42 905.29 929.5 872.5 929.5 806.91 895.42 774.12 861.34 806.91" style="fill:url(#linear-gradient-2)"/><polygon points="915.48 989.08 985.63 922.05 1007.75 1017.01 915.48 989.08" style="fill:#8aace2"/><polygon points="786.68 1016.75 808.92 922.3 879.25 989.84 786.68 1016.75" style="fill:#8aabe1"/><polygon points="895.85 992.6 862.99 1014.64 896.64 1114.39 929.44 1014.64 895.85 992.6" style="fill:#8cb9e3"/><path d="M1459.92,552.71l-34.76,154.43L1130.43,906s-28.26,287.66,256.37,487.52l-112,49.45s-254.36-137.27-260.41-588.45Z" transform="translate(-577.98 -152.43)" style="fill:url(#linear-gradient-3)"/><path d="M1490.77,552.71l34.31,154.43L1829.91,906s19.17,123.14-70.66,285.65c0,0-88.82,191.77-383.55,295.73,0,0-324,122.14-492.56-22.2,0,0-100.93-60.23-169.57-259.23l36.34-40.45-4-81.85-55.51-39.47s-16.15-330,210.95-544.95l98.91,5.05,42.4,82.77-54.51,80.75-95.89-4L869,632.45l-38.36,46.43,20.19,38.35,150.39,16.15,111-128.18-69.64-159.48-80.75-9.08s237.2-220,605.61-177.65c0,0,432,25.23,629.83,451.18l25.23,61.57v9.08l-23.21,62.58-92.86,16.15-70.66-77.72L2077.2,689l60.56-10.09-38.36-52.49-61.57,7.07-67.62,151.4L2072.15,919.1,2222.54,904l27.25-24.22s85.8,325-162.5,613.68c0,0-374.47,465.31-1120.37,241.23,0,0-77.72-28.93-86.92-41.49,0,0,42.06,43.74,69.87,59.44,0,0,259.29,206.8,681.2,128.75,0,0,296.52-34.32,522.16-288,0,0,241.57-262.35,209.27-666.8,0,0-1.34-500-597.53-728.79,0,0-440.07-161.5-833,125.16,0,0-352.6,234.46-353.95,677.08,0,0,20.19,312.07,118.43,429.16,0,0,176.3,232.82,413.16,219.36,0,0,130.54,17.5,339.14-70,0,0,238.21-83.44,383.55-298.76,0,0,118.43-158.81,111.7-375.48V855.85Z" transform="translate(-577.98 -152.43)" style="fill:url(#linear-gradient-4)"/><polygon points="1300.37 1185.55 1395.25 1179.5 1445.72 1250.15 1413.42 1337.97 1311.48 1348.06 1257.98 1274.38 1300.37 1185.55" style="fill:url(#linear-gradient-5)"/><polygon points="1321.95 1218.34 1377.06 1214.82 1406.38 1255.86 1387.62 1306.87 1328.4 1312.74 1297.32 1269.93 1321.95 1218.34" style="fill:#fff"/></svg>